# xmcd
#
# Track frame offsets: 
#        150
#        15952
#        33767
#        48237
#        59895
#        75450
#        88437
#        105940
#        127032
#        138565
#        152960
#        168760
#        188045
#        202425
#
# Disc length: 2845 seconds
#
# Revision: 2
# Processed by: cddbd v1.5.1PL0 Copyright (c) Steve Scherf et al.
# Submitted via: ExactAudioCopy v0.95a5
#
DISCID=bc0b1b0e
DTITLE=Various Artist - Country Hot Hits #14
DYEAR=1900
DGENRE=
TTITLE0=M Stewart and T? - This One's Gonna Hurt You (For A Long, Long T
TTITLE0=ime)
TTITLE1=Wynonna - I Saw The Light
TTITLE2=Dwight Yoakam - Heart That You Own - The
TTITLE3=Martina McBride - Time Has Come - The
TTITLE4=Patty Loveless - Can't Stop Myself From Loving You
TTITLE5=Matthews, Wright and King - Power Of Love - The
TTITLE6=Doug Stone - Come In Out Of The Pain
TTITLE7=Lorrie Morgan - Something In Red
TTITLE8=Cleve Francis - You Do My Heart Good
TTITLE9=Dan Seals - Mason Dixon Line
TTITLE10=Mac McAnally - Live And Learn
TTITLE11=Reba McEntire - Night The Lights Went Out In Georgia - The
TTITLE12=Shenandoah - Rock My Baby
TTITLE13=Dennis Robbins - Home Sweet Home
EXTD=
EXTT0=Stewart - Marty and Tritt - Travis
EXTT1=Judd - Wynonna
EXTT2=Yoakam - Dwight
EXTT3=McBride - Martina
EXTT4=Loveless - Patty
EXTT5=Matthews, Wright and King
EXTT6=Stone - Doug
EXTT7=Morgan - Lorrie
EXTT8=Francis - Cleve
EXTT9=Seals - Dan
EXTT10=McAnally - Mac
EXTT11=McEntire - Reba
EXTT12=Shenandoah
EXTT13=Robbins - Dennis
PLAYORDER=
